<?xml version="1.0" encoding="UTF-8"?>
<svg xmlns="http://www.w3.org/2000/svg" viewBox="0 0 1080 1080">
  <defs>
    <style>
      .cls-1 {
        fill: #fff;
      }

      .cls-1, .cls-2 {
        stroke-width: 0px;
      }

      .cls-2 {
        fill: #437eeb;
      }
    </style>
  </defs>
  <g id="_图层_1" data-name="图层 1">
    <g id="_图层_4" data-name="图层 4">
      <circle class="cls-2" cx="540" cy="540" r="540"/>
    </g>
  </g>
  <g id="_图层_5" data-name="图层 5">
    <path class="cls-1" d="m433.16,268.13c-7.64-20.86-23.93-35.82-43.24-42.99-.29-.11-.52-.29-.81-.39-.37-.14-.75-.16-1.13-.29-3.57-1.21-7.18-2.15-10.92-2.8-1.61-.29-3.2-.52-4.81-.71-2.62-.28-5.23-.41-7.89-.4-2.66-.01-5.27.12-7.89.4-1.61.18-3.2.41-4.81.71-3.73.65-7.35,1.58-10.91,2.79-.37.13-.75.15-1.13.29-.29.11-.53.29-.81.39-19.31,7.17-35.6,22.13-43.24,42.98l-184.22,502.86c-13.85,37.81,5.57,79.69,43.38,93.54,37.81,13.85,79.69-5.57,93.54-43.38l116.1-316.91,116.1,316.91c13.85,37.81,55.73,57.23,93.54,43.38,37.81-13.85,57.23-55.73,43.38-93.54l-184.22-502.86Z"/>
    <path class="cls-1" d="m968.33,759.99l-184.22-502.86c-11-30.01-39.68-48.12-69.94-47.51-30.26-.61-58.94,17.5-69.94,47.51l-39.35,107.42,77.65,211.96,31.64-86.38,117.24,320.02c13.85,37.81,55.73,57.23,93.54,43.38,37.81-13.85,57.23-55.73,43.38-93.54Z"/>
    <circle class="cls-1" cx="364" cy="794" r="64"/>
    <rect class="cls-1" x="578.7" y="304.99" width="60" height="500" transform="translate(-153.11 241.66) rotate(-20)"/>
    <circle class="cls-1" cx="524.01" cy="321.01" r="30"/>
    <circle class="cls-1" cx="694.49" cy="789.91" r="30"/>
  </g>
</svg>