<?xml version="1.0" encoding="utf-8"?>
<!-- Generator: Adobe Illustrator 28.0.0, SVG Export Plug-In . SVG Version: 6.00 Build 0)  -->
<svg version="1.1" id="图层_1" xmlns="http://www.w3.org/2000/svg" xmlns:xlink="http://www.w3.org/1999/xlink" x="0px" y="0px"
	 viewBox="0 0 258 56" style="enable-background:new 0 0 258 56;" xml:space="preserve">
<style type="text/css">
	.st0{fill:#437EEB;}
	.st1{fill:#FFFFFF;}
</style>
<circle class="st0" cx="28" cy="28" r="28"/>
<g>
	<path class="st1" d="M23.46,13.9c-0.4-1.08-1.24-1.86-2.24-2.23c-0.01-0.01-0.03-0.01-0.04-0.02c-0.02-0.01-0.04-0.01-0.06-0.01
		c-0.18-0.06-0.37-0.11-0.57-0.14c-0.08-0.02-0.17-0.03-0.25-0.04c-0.14-0.01-0.27-0.02-0.41-0.02c-0.14,0-0.27,0.01-0.41,0.02
		c-0.08,0.01-0.17,0.02-0.25,0.04c-0.19,0.03-0.38,0.08-0.57,0.14c-0.02,0.01-0.04,0.01-0.06,0.02c-0.02,0.01-0.03,0.01-0.04,0.02
		c-1,0.37-1.85,1.15-2.24,2.23L6.78,39.98c-0.72,1.96,0.29,4.13,2.25,4.85c1.96,0.72,4.13-0.29,4.85-2.25l6.02-16.43l6.02,16.43
		c0.72,1.96,2.89,2.97,4.85,2.25c1.96-0.72,2.97-2.89,2.25-4.85L23.46,13.9z"/>
</g>
<g>
	<path class="st1" d="M51.21,39.41l-9.55-26.07c-0.57-1.56-2.06-2.49-3.63-2.46c-1.57-0.03-3.06,0.91-3.63,2.46l-2.04,5.57
		l4.03,10.99l1.64-4.48l6.08,16.59c0.72,1.96,2.89,2.97,4.85,2.25C50.92,43.54,51.93,41.37,51.21,39.41z"/>
</g>
<circle class="st1" cx="19.88" cy="41.17" r="3.32"/>
<rect x="31.01" y="15.81" transform="matrix(0.9397 -0.342 0.342 0.9397 -7.8784 12.8739)" class="st1" width="3.11" height="25.93"/>
<circle class="st1" cx="28.18" cy="16.64" r="1.56"/>
<circle class="st1" cx="37.01" cy="40.96" r="1.56"/>
<g>
	<g>
		<path d="M69.3,35.09l-1.71,6.23h-5.67l7.4-24.26h7.18l7.55,24.26h-5.91l-1.87-6.23H69.3z M75.46,31l-1.51-5.16
			c-0.42-1.43-0.85-3.25-1.22-4.67h-0.08c-0.36,1.43-0.72,3.27-1.11,4.68L70.09,31H75.46z"/>
		<path d="M92.78,17.06v24.26h-5.49V17.06H92.78z"/>
		<path d="M118.06,32.04c-0.11-2.94-0.22-6.44-0.21-9.99h-0.1c-0.77,3.1-1.79,6.55-2.71,9.42l-2.97,9.46h-4.26l-2.61-9.38
			c-0.78-2.86-1.59-6.3-2.19-9.5h-0.08c-0.12,3.3-0.25,7.04-0.4,10.07l-0.45,9.21H97l1.55-24.26h7.31l2.37,8.11
			c0.77,2.78,1.52,5.83,2.06,8.67h0.12c0.66-2.81,1.49-6.01,2.31-8.71l2.58-8.07h7.18l1.3,24.26h-5.33L118.06,32.04z"/>
		<path d="M150.2,28.95c0,7.96-4.8,12.77-11.9,12.77c-7.19,0-11.43-5.44-11.43-12.36c0-7.25,4.67-12.69,11.81-12.69
			C146.13,16.66,150.2,22.23,150.2,28.95z M132.67,29.25c0,4.75,2.24,8.1,5.9,8.1c3.71,0,5.83-3.5,5.83-8.22
			c0-4.37-2.07-8.11-5.84-8.11C134.84,21.02,132.67,24.53,132.67,29.25z"/>
		<path d="M153.82,41.32V17.06h6.39l5.04,8.9c1.45,2.54,2.87,5.58,3.96,8.32l0.09-0.01c-0.34-3.21-0.44-6.47-0.44-10.14v-7.07h5.04
			v24.26h-5.75l-5.2-9.34c-1.45-2.62-3.04-5.73-4.21-8.57l-0.12,0.01c0.17,3.21,0.24,6.65,0.24,10.61v7.29H153.82z"/>
		<path d="M184.14,17.06v24.26h-5.49V17.06H184.14z"/>
		<path d="M193.6,21.66h-6.55v-4.6h18.67v4.6h-6.64v19.66h-5.49V21.66z"/>
		<path d="M230.83,28.95c0,7.96-4.8,12.77-11.9,12.77c-7.19,0-11.43-5.44-11.43-12.36c0-7.25,4.67-12.69,11.81-12.69
			C226.76,16.66,230.83,22.23,230.83,28.95z M213.31,29.25c0,4.75,2.24,8.1,5.9,8.1c3.71,0,5.83-3.5,5.83-8.22
			c0-4.37-2.07-8.11-5.84-8.11C215.48,21.02,213.31,24.53,213.31,29.25z"/>
		<path d="M234.46,17.39c1.76-0.3,4.37-0.52,7.29-0.52c3.6,0,6.12,0.55,7.85,1.92c1.45,1.15,2.25,2.85,2.25,5.09
			c0,3.07-2.2,5.21-4.28,5.96v0.11c1.68,0.68,2.63,2.29,3.24,4.52c0.75,2.75,1.48,5.91,1.96,6.85h-5.62
			c-0.37-0.7-0.98-2.65-1.67-5.66c-0.68-3.03-1.69-3.84-3.95-3.87h-1.63v9.53h-5.44V17.39z M239.89,27.82h2.15
			c2.72,0,4.35-1.39,4.35-3.5c0-2.22-1.52-3.36-4.03-3.37c-1.31,0-2.08,0.09-2.47,0.18V27.82z"/>
	</g>
</g>
</svg>
